/* XPM */
static char * birck_wall_xpm[] = {
"33 32 360 2",
"  	c #4F3B3C",
". 	c #674845",
"+ 	c #664742",
"@ 	c #674A46",
"# 	c #6C4D48",
"$ 	c #6B4D45",
"% 	c #6D4C47",
"& 	c #5F5E6E",
"* 	c #695355",
"= 	c #6F4C46",
"- 	c #694C44",
"; 	c #684944",
"> 	c #664945",
", 	c #664A46",
"' 	c #664943",
") 	c #654945",
"! 	c #664941",
"~ 	c #684946",
"{ 	c #6E4D46",
"] 	c #6F4C48",
"^ 	c #6A5554",
"/ 	c #50586F",
"( 	c #6E4B45",
"_ 	c #6D4D42",
": 	c #923929",
"< 	c #C14732",
"[ 	c #C1472F",
"} 	c #BF4830",
"| 	c #C0482F",
"1 	c #BC482F",
"2 	c #AB6049",
"3 	c #9894A3",
"4 	c #736775",
"5 	c #893E38",
"6 	c #BE472F",
"7 	c #BF4834",
"8 	c #BD4A2F",
"9 	c #BF472F",
"0 	c #C04732",
"a 	c #C14730",
"b 	c #BF472E",
"c 	c #BF492F",
"d 	c #AD6F5A",
"e 	c #A57A69",
"f 	c #8C9CB6",
"g 	c #A24130",
"h 	c #C04830",
"i 	c #BD4930",
"j 	c #92392B",
"k 	c #BD4A2D",
"l 	c #AC5F4B",
"m 	c #9995A4",
"n 	c #746874",
"o 	c #854138",
"p 	c #C04931",
"q 	c #AB715D",
"r 	c #A67B6A",
"s 	c #8B9BB4",
"t 	c #9E4130",
"u 	c #BC4831",
"v 	c #BD4932",
"w 	c #C14931",
"x 	c #923A2C",
"y 	c #AB604D",
"z 	c #9896A3",
"A 	c #864038",
"B 	c #BF4832",
"C 	c #AD7159",
"D 	c #8C9AB5",
"E 	c #A04030",
"F 	c #90392F",
"G 	c #C0482D",
"H 	c #AD5F49",
"I 	c #9A94A2",
"J 	c #746876",
"K 	c #854136",
"L 	c #BE482E",
"M 	c #BF4631",
"N 	c #AC7056",
"O 	c #A87A6A",
"P 	c #8C9CB5",
"Q 	c #A03F2F",
"R 	c #BF492D",
"S 	c #BE4731",
"T 	c #953C2C",
"U 	c #BC492E",
"V 	c #C04A30",
"W 	c #A95E4B",
"X 	c #9894A2",
"Y 	c #706877",
"Z 	c #C3472F",
"` 	c #AC6F5C",
" .	c #A17A6B",
"..	c #9E4034",
"+.	c #C0462E",
"@.	c #C24830",
"#.	c #BE4B30",
"$.	c #993D2E",
"%.	c #AD604C",
"&.	c #9996A1",
"*.	c #6F6774",
"=.	c #883F36",
"-.	c #AE7059",
";.	c #A37969",
">.	c #8C9BB8",
",.	c #A53F30",
"'.	c #4E4250",
").	c #5F4852",
"!.	c #5E4854",
"~.	c #5D4952",
"{.	c #5D4754",
"].	c #5E4952",
"^.	c #72595F",
"/.	c #9198AA",
"(.	c #6E6C84",
"_.	c #5D4857",
":.	c #5E4653",
"<.	c #5C4854",
"[.	c #5E4958",
"}.	c #624750",
"|.	c #5F4754",
"1.	c #5E4855",
"2.	c #7C6261",
"3.	c #87767E",
"4.	c #8A9BB5",
"5.	c #5D4753",
"6.	c #5E4757",
"7.	c #614752",
"8.	c #5E4A55",
"9.	c #5D4851",
"0.	c #705D5F",
"a.	c #836E69",
"b.	c #896B6B",
"c.	c #856D6B",
"d.	c #846C6C",
"e.	c #846C6A",
"f.	c #856B6A",
"g.	c #99817F",
"h.	c #8D7372",
"i.	c #826D6A",
"j.	c #856D6D",
"k.	c #856B6C",
"l.	c #73788B",
"m.	c #827275",
"n.	c #886C6B",
"o.	c #866C6B",
"p.	c #866C6D",
"q.	c #846C68",
"r.	c #8C7472",
"s.	c #987E7D",
"t.	c #7C7682",
"u.	c #856E68",
"v.	c #866E6E",
"w.	c #9C493B",
"x.	c #C1573F",
"y.	c #C2553E",
"z.	c #C0583F",
"A.	c #C1573D",
"B.	c #B06852",
"C.	c #836C72",
"D.	c #965245",
"E.	c #BF573E",
"F.	c #C16148",
"G.	c #C28566",
"H.	c #817E8F",
"I.	c #884F46",
"J.	c #BE593D",
"K.	c #C35641",
"L.	c #973B2E",
"M.	c #BC4A2F",
"N.	c #A8604A",
"O.	c #873E37",
"P.	c #C14930",
"Q.	c #C28568",
"R.	c #7B7F98",
"S.	c #713E3B",
"T.	c #943B2B",
"U.	c #AB604B",
"V.	c #9995A3",
"W.	c #874137",
"X.	c #C0583D",
"Y.	c #797E92",
"Z.	c #743E3C",
"`.	c #943B2D",
" +	c #A85F4C",
".+	c #726873",
"++	c #843F38",
"@+	c #C2846B",
"#+	c #7A7F93",
"$+	c #733B3A",
"%+	c #716674",
"&+	c #854039",
"*+	c #C0563C",
"=+	c #C18467",
"-+	c #7B7D94",
";+	c #733B3C",
">+	c #963D2F",
",+	c #BC4A30",
"'+	c #AC614E",
")+	c #9A94A0",
"!+	c #726777",
"~+	c #C28569",
"{+	c #747F91",
"]+	c #753D3C",
"^+	c #4F3E4E",
"/+	c #5C4555",
"(+	c #715C61",
"_+	c #9399A9",
":+	c #6C6D81",
"<+	c #5E4751",
"[+	c #5E4654",
"}+	c #6A505B",
"|+	c #856D69",
"1+	c #76829A",
"2+	c #5D4656",
"3+	c #5C5D71",
"4+	c #73717F",
"5+	c #6C768F",
"6+	c #707589",
"7+	c #74707E",
"8+	c #777080",
"9+	c #76707C",
"0+	c #7D7B89",
"a+	c #76707E",
"b+	c #766F7F",
"c+	c #77717F",
"d+	c #747081",
"e+	c #71738A",
"f+	c #6C7892",
"g+	c #74707F",
"h+	c #757180",
"i+	c #878590",
"j+	c #756F7D",
"k+	c #75717F",
"l+	c #9D4738",
"m+	c #C18569",
"n+	c #9896A1",
"o+	c #817F8D",
"p+	c #C05741",
"q+	c #C15741",
"r+	c #C06248",
"s+	c #96817C",
"t+	c #8D99B1",
"u+	c #854F45",
"v+	c #C0563E",
"w+	c #91382A",
"x+	c #C18668",
"y+	c #787C95",
"z+	c #967E7C",
"A+	c #753E3B",
"B+	c #95392C",
"C+	c #9795A0",
"D+	c #797E94",
"E+	c #723C3C",
"F+	c #C04734",
"G+	c #933A2C",
"H+	c #C1856B",
"I+	c #9A93A3",
"J+	c #777F92",
"K+	c #98807E",
"L+	c #733E3A",
"M+	c #933B2F",
"N+	c #C08468",
"O+	c #9B98A3",
"P+	c #787F92",
"Q+	c #BF472C",
"R+	c #987F7B",
"S+	c #8B9BB5",
"T+	c #723F3B",
"U+	c #C24831",
"V+	c #933C2B",
"W+	c #C48468",
"X+	c #9895A0",
"Y+	c #7A7F95",
"Z+	c #BF573C",
"`+	c #977F7D",
" @	c #8C9EB6",
".@	c #C14833",
"+@	c #53414F",
"@@	c #866D69",
"#@	c #9199AC",
"$@	c #7A8194",
"%@	c #5C4653",
"&@	c #5C4756",
"*@	c #624853",
"=@	c #5F4956",
"-@	c #778399",
";@	c #8D9BB5",
">@	c #5C4853",
",@	c #5D4552",
"'@	c #5F4755",
")@	c #615D6E",
"!@	c #9B94A4",
"~@	c #898691",
"{@	c #6E7588",
"]@	c #6E748A",
"^@	c #757182",
"/@	c #766F81",
"(@	c #888590",
"_@	c #70758B",
":@	c #6C7691",
"<@	c #736E82",
"[@	c #945140",
"}@	c #AD614A",
"|@	c #AC6049",
"1@	c #AA5F4A",
"2@	c #A75F49",
"3@	c #B16A54",
"4@	c #887E89",
"5@	c #AE614D",
"6@	c #AD6149",
"7@	c #AC614A",
"8@	c #AB5E4A",
"9@	c #AA5F4C",
"0@	c #A9614B",
"a@	c #977F7B",
"b@	c #9297AB",
"c@	c #905B4D",
"d@	c #9A7E7B",
"e@	c #767E91",
"f@	c #8A9CB2",
"g@	c #733D3B",
"h@	c #933B2D",
"i@	c #BF4633",
"j@	c #BC4934",
"k@	c #BE5841",
"l@	c #773C3E",
"m@	c #967E7A",
"n@	c #8D9BB6",
"o@	c #743C3B",
"p@	c #997F7E",
"q@	c #787E94",
"r@	c #98807C",
"s@	c #8A9BB7",
"t@	c #91392D",
"u@	c #BC563F",
"v@	c #798093",
"w@	c #C04631",
"x@	c #513740",
"y@	c #623E40",
"z@	c #663B42",
"A@	c #653C40",
"B@	c #643D3E",
"C@	c #653D3E",
"D@	c #673D41",
"E@	c #653E43",
"F@	c #764A49",
"G@	c #918287",
"H@	c #797F97",
"I@	c #633C3F",
"J@	c #643D40",
"K@	c #643D42",
"L@	c #663D41",
"M@	c #633E45",
"N@	c #653C44",
"O@	c #663D43",
"P@	c #908184",
"Q@	c #653C42",
"R@	c #623E42",
"S@	c #623D44",
"  . + @ # $ % & * # = - ; > , ' ) ! ~ . > { ] $ ^ / ( _ # > . @ > ",
": < [ } | 1 2 3 4 5 | 6 } 7 8 9 0 1 a | b | c d e f g | h c h h i ",
"j 6 k } h 6 l m n o } p i a | 7 0 c } 0 h c | q r s t 0 u 8 v | w ",
"x h h } a c y z 4 A } h i h B h } } } 6 } } } C e D E [ } } 0 0 } ",
"F b } 6 G 0 H I J K | a } h h L h h h h h h M N O P Q a B R B S 6 ",
"T B U V h S W X Y o } } c Z } B } } } } } } h `  .D ..h 0 +.@.#.+.",
"$.B w M c | %.&.*.=.h h } 0 0 7 h h h h h h c -.;.>.,.c | c 0 S w ",
"'.).!.~.{.].^./.(._.:.<.[.}.].|.1.1.1.1.1.{.{.2.3.4.<.5.6.7.8.!.9.",
"0.a.b.c.d.e.f.g.h.i.j.k.l.m.j.n.o.o.o.o.o.f.p.q.r.s.f.k.f.t.o.u.v.",
"w.x.y.x.z.z.z.z.z.z.A.B.m C.D.E.z.z.z.z.z.z.z.x.z.z.x.F.G.H.I.J.K.",
"L.M.L | h h h h h h } N.&.4 O.P.h h h h h h } h } } p A.Q.R.S.h h ",
"T.} } } h h h h h h 1 U.V.J W.6 h h h h h h } h h } } X.Q.Y.Z.6 B ",
"`.h } } h h h h h h 0  +V..+++S h h h h h h } h h h 0 x.@+#+$+} c ",
"j h 9 h h h h h h h 9 U.X %+&+| h h h h h h | | h h h *+=+-+;+| L ",
">+8 a ,+} } } } } } c '+)+!+o B } } } } } } 9 } } 6 B z.~+{+]+b c ",
"^+1.9./+!.!.!.!.!.!.5.(+_+:+<.<.:.{.<+:.[+).|.!.!.|.).}+|+1+5.2+1.",
"3+4+5+6+7+7+7+7+7+7+8+9+V.0+a+b+c+d+e+f+a+g+g+g+h+g+b+c+g+i+j+k+g+",
"l+m+n+o+A.A.A.A.A.A.x.E.p+p+X.A.q+r+s+t+u+E.v+x.v+v+x.x.x.A.x.z.A.",
"w+x+V.y+} } } } } } h } B w u 9 b X.z+4.A+h L } } c 6 } 0 } v | } ",
"B+m+C+D+h h h h h h h } } +.p p c *+s.P E+} } B B } 6 B } b F+9 w ",
"G+H+I+J+i } h } } } } c 0 V b B h A.K+D L+G c h #.| a } | F+h c h ",
"M+N+O+P+h w h 6 6 9 B 6 [ L i Q+6 q+R+S+T+h i a } p } } } L p U+B ",
"V+W+X+Y+} } 6 p } } } c B p B v } Z+`+ @$+R | } u .@h h ,+P.6 } h ",
"+@@@#@$@{.1.<.{.{.%@|.&@<.*@=@!.!.!.-@;@|.>@{.%@>@&@2+[+,@|.).'@7.",
")@9+!@~@g+g+h+b+b+8+{@]@^@b+a+4+/@g+(@X d+7+a+8+k+g+_@:@7+<@h+a+h+",
"[@}@U.|@1@1@1@1@2@3@`+4@5@6@}@U.}@}@l 7@U.8@1@y 9@0@a@b@c@}@2 |@}@",
"L.M h h U w } [ } q+d@e@a } 9 w } } } } } } c i b V s.f@g@B h h 9 ",
"h@} } < c 9 L i@j@k@`+P+u } c c } } } } } } h M.c S `+>.l@| | c } ",
"`.M 6 h [ B } < a v+`+Y.P.[ i } h h h h h h p B i M m@n@o@6 0 8 a ",
": 0 c h c B h 9 | E.p@q@R b } [ } } } } } } | p 1 P.r@s@o@B h 9 [ ",
"t@7 } h c h 0 h h u@r@v@0 < w@G h h h h h h [ } h } `+f g@M i h M ",
"x@y@z@y@A@B@C@D@E@F@G@H@I@J@J@J@K@K@K@K@K@K@L@M@N@O@P@S+Q@R@B@J@S@"};
