/* XPM */
static char * bitcoin_xpm[] = {
"32 32 295 2",
"  	c None",
". 	c #9B6B2D",
"+ 	c #CF8C31",
"@ 	c #E59234",
"# 	c #EA9332",
"$ 	c #EB9433",
"% 	c #EC9538",
"& 	c #EB9532",
"* 	c #EC9337",
"= 	c #ED9436",
"- 	c #BD5A30",
"; 	c #A53E2D",
"> 	c #94382D",
", 	c #95642C",
"' 	c #B47031",
") 	c #D68931",
"! 	c #EC9835",
"~ 	c #F1A035",
"{ 	c #F3A334",
"] 	c #F3A038",
"^ 	c #F3A036",
"/ 	c #F4A234",
"( 	c #F4A236",
"_ 	c #F5A036",
": 	c #F5A035",
"< 	c #E38835",
"[ 	c #D57832",
"} 	c #D67832",
"| 	c #943D2C",
"1 	c #73332A",
"2 	c #855F30",
"3 	c #FBAF37",
"4 	c #FFAD35",
"5 	c #DB7E31",
"6 	c #DD7B32",
"7 	c #FEAE35",
"8 	c #FDAE35",
"9 	c #FDAF31",
"0 	c #FCAE32",
"a 	c #FEAD37",
"b 	c #FCAD34",
"c 	c #C0482F",
"d 	c #C04931",
"e 	c #923A2C",
"f 	c #DC9231",
"g 	c #D97730",
"h 	c #FDAC36",
"i 	c #FCAD36",
"j 	c #FDAE38",
"k 	c #FDAE37",
"l 	c #FDAF33",
"m 	c #D06133",
"n 	c #AD432D",
"o 	c #C1482D",
"p 	c #C28630",
"q 	c #D28132",
"r 	c #D48133",
"s 	c #F09A33",
"t 	c #FDAD32",
"u 	c #FBAF35",
"v 	c #FFAC37",
"w 	c #FEC63F",
"x 	c #FCCF3E",
"y 	c #F0C23B",
"z 	c #E3A035",
"A 	c #CC7A30",
"B 	c #AF4130",
"C 	c #933A2C",
"D 	c #79562C",
"E 	c #FEAE33",
"F 	c #DC7530",
"G 	c #E18635",
"H 	c #FDAD34",
"I 	c #F9AF36",
"J 	c #FDB836",
"K 	c #FDD343",
"L 	c #FED943",
"M 	c #FFC03C",
"N 	c #E6A237",
"O 	c #CE6231",
"P 	c #BC482F",
"Q 	c #80332D",
"R 	c #BE472F",
"S 	c #FFAD37",
"T 	c #FAAE34",
"U 	c #FED942",
"V 	c #FFD840",
"W 	c #FDD841",
"X 	c #FEDA44",
"Y 	c #EEC23D",
"Z 	c #FCAE30",
"` 	c #BD4930",
" .	c #AB402E",
"..	c #C04732",
"+.	c #BF882E",
"@.	c #BF4834",
"#.	c #FAAE36",
"$.	c #C04734",
"%.	c #DF7A32",
"&.	c #EB9437",
"*.	c #E07A30",
"=.	c #FCC43B",
"-.	c #FFD946",
";.	c #FED940",
">.	c #FDD943",
",.	c #E3A335",
"'.	c #BF4832",
").	c #A8422C",
"!.	c #D18F31",
"~.	c #D16133",
"{.	c #FFAE38",
"].	c #F39A34",
"^.	c #ED9533",
"/.	c #EC9534",
"(.	c #BF492F",
"_.	c #D56E33",
":.	c #E28331",
"<.	c #BC492E",
"[.	c #D47B37",
"}.	c #EFB43E",
"|.	c #EBB73D",
"1.	c #FCCF40",
"2.	c #FFD944",
"3.	c #FFD843",
"4.	c #E79E35",
"5.	c #D16235",
"6.	c #B7502D",
"7.	c #BF4631",
"8.	c #FFAF36",
"9.	c #C87330",
"0.	c #CE6434",
"a.	c #FFAC36",
"b.	c #CF612E",
"c.	c #C04830",
"d.	c #BE4731",
"e.	c #C0462E",
"f.	c #BF4830",
"g.	c #F0B541",
"h.	c #FEC43C",
"i.	c #C87332",
"j.	c #FFAC34",
"k.	c #C97433",
"l.	c #CE632F",
"m.	c #FFAF34",
"n.	c #E78932",
"o.	c #CD6132",
"p.	c #BE482E",
"q.	c #CB6032",
"r.	c #E48F35",
"s.	c #C77333",
"t.	c #C87533",
"u.	c #BD4A2D",
"v.	c #C14730",
"w.	c #BF492D",
"x.	c #DD7B30",
"y.	c #C87531",
"z.	c #DD7D31",
"A.	c #BF472F",
"B.	c #DE903B",
"C.	c #FDD83F",
"D.	c #CC6B36",
"E.	c #BD4A2F",
"F.	c #DE7C33",
"G.	c #C97431",
"H.	c #DF8636",
"I.	c #C14732",
"J.	c #DF8F38",
"K.	c #FEDB43",
"L.	c #D16934",
"M.	c #E07B35",
"N.	c #CA7532",
"O.	c #FDBE3D",
"P.	c #DF8A37",
"Q.	c #CD6D33",
"R.	c #E0903B",
"S.	c #DD8B39",
"T.	c #C75530",
"U.	c #CA5B30",
"V.	c #E68735",
"W.	c #FDBA37",
"X.	c #FCD242",
"Y.	c #DF913C",
"Z.	c #C14931",
"`.	c #BF472E",
" +	c #C0462F",
".+	c #ED9333",
"++	c #FFBA38",
"@+	c #E09039",
"#+	c #BE4A33",
"$+	c #C0482D",
"%+	c #EF9233",
"&+	c #FBBF3B",
"*+	c #FED142",
"=+	c #FFD943",
"-+	c #DD9038",
";+	c #C04933",
">+	c #DE7C31",
",+	c #C95530",
"'+	c #CB5C31",
")+	c #E68733",
"!+	c #D0622F",
"~+	c #FEC43E",
"{+	c #FFCE41",
"]+	c #FFD744",
"^+	c #CC6031",
"/+	c #BE4A31",
"(+	c #C97632",
"_+	c #CE6233",
":+	c #FFD842",
"<+	c #FFD845",
"[+	c #DC8C37",
"}+	c #BC4831",
"|+	c #E17B33",
"1+	c #E07B33",
"2+	c #FBB033",
"3+	c #C77430",
"4+	c #FFDA44",
"5+	c #FDDA42",
"6+	c #FDC93F",
"7+	c #DF7F33",
"8+	c #FEAF36",
"9+	c #C9752F",
"0+	c #CF6430",
"a+	c #FDDA40",
"b+	c #FCD842",
"c+	c #DA7935",
"d+	c #C95431",
"e+	c #C14930",
"f+	c #BD4932",
"g+	c #D66D33",
"h+	c #EA9633",
"i+	c #CA7630",
"j+	c #D38034",
"k+	c #DB7432",
"l+	c #FFD742",
"m+	c #FFDA41",
"n+	c #D0602E",
"o+	c #EF9437",
"p+	c #CF7833",
"q+	c #C18831",
"r+	c #DD7B34",
"s+	c #ED9534",
"t+	c #DF7B30",
"u+	c #FEAF38",
"v+	c #FCB038",
"w+	c #E09B33",
"x+	c #A84130",
"y+	c #C28532",
"z+	c #FFAD33",
"A+	c #E68831",
"B+	c #F29B32",
"C+	c #CD6130",
"D+	c #E98633",
"E+	c #FEAF39",
"F+	c #DF9A32",
"G+	c #C08730",
"H+	c #FDAC37",
"I+	c #DF9A33",
"J+	c #AA412E",
"K+	c #785629",
"L+	c #DA7531",
"M+	c #DF8632",
"N+	c #E19631",
"O+	c #D06231",
"P+	c #80332B",
"Q+	c #835E29",
"R+	c #DC9233",
"S+	c #D98733",
"T+	c #E08630",
"U+	c #DE9B33",
"V+	c #D78533",
"W+	c #C16830",
"X+	c #AB422C",
"Y+	c #622A2B",
"Z+	c #DB9233",
"`+	c #DB7533",
" @	c #FEAD38",
".@	c #FCAF39",
"+@	c #B0412D",
"@@	c #835D2E",
"#@	c #FEB034",
"$@	c #FFAC32",
"%@	c #92392B",
"&@	c #694127",
"*@	c #D79034",
"=@	c #DE7931",
"-@	c #91692C",
";@	c #D08D32",
">@	c #E5912F",
",@	c #EB9435",
"'@	c #EC9433",
")@	c #EC9335",
"!@	c #BE5C2F",
"~@	c #A9402D",
"{@	c #943B2D",
"                  . + @ # $ % & & # * = - ; >                   ",
"              , ' ) ! ~ { ] ^ / / ( _ : < [ } | 1               ",
"            2 3 4 5 6 7 7 8 8 8 8 9 0 7 a 7 b c d e             ",
"        3 3 f g h 7 b a i 7 b j j k 8 i l l k l m n o o         ",
"      p q q r s t 8 u 7 7 t k i i u v a 7 w x y z A B B C       ",
"    D E F F G H k j a a u k 8 8 8 u 7 I J K L L M N O O P Q     ",
"  p E R 8 8 3 4 E b S 0 9 7 u T T a E a L U V W X Y Z Z `  ...  ",
"  +.H @.4 4 #.l a k H 4 $.%.&.....*.=.-.;.>.>.X M ,.k k '.).`   ",
"  !.i ~.8 8 #.u {.].^./.(._.:.<.<.[.}.|.1.2.3.l 3 4.7 7 5.6.7.  ",
"8.9.0.8 7 7 E i a.b.c.(.c.d.e.f.f.(...c.g.h.7 0 7 8.t t k i.f.R ",
"j.k.l.k 8 8 i m.8 n.o.c.'.` e.` ` d.c p.q.r.3 8 k 8 8 8 b s.c '.",
"k t.O 7 7 7 u T 8 a %.'.(.c c.u.u.c.v.w...x.8 8 8 8 8 8 7 y.f.f.",
"8 y.O 7 a a H l 4 b z.A.c.B.C.-.-.D.f.E.f.F.8 8 8 8 8 8 7 y.f.A.",
"7 G.O 7 a a l H i 4 H.f.I.J.K.U U L.A.w.c.M.8 8 8 8 8 8 7 y.f.f.",
"H N.O 7 8 8 T 8 H O.P.c f.Q.R.S.S.T.E.c U.V.8 8 8 8 8 8 7 y.f.` ",
"7 G.O k b b k 8.W.X.Y.(.c.Z.`.c.c. +` R .+8 8 8 8 8 8 8 7 y.f.f.",
"8.G.O k 7 7 H ++L U @+c.` p.#+7.7.$+'.c %+8 8 8 8 8 8 8 7 y.f.A.",
"7 G.O 7 t t &+*+=+=+-+f.;+0.>+%.%.,+7.7.'+)+8 8 8 8 8 8 7 y.f.c.",
"7 N.!+7 ~+~+{+L L ]+-+c.A.%.k l l ^+c /+R %.8 8 8 8 8 8 7 y.f.(.",
"9 (+_+E L L 3.U :+<+[+c.}+|+u 4 4 o.f.(...1+H 7 k 7 8 8 8 y.f.Z.",
"2+3+O a 3.3.4+5+U 6+7+..c f.$.p.p.'.(.c.f.x.8+i u k 8 8 a 9+..f.",
"a y.0+i a+a+2.b+~+c+d+e+..f+v.(.(.`.f.c.g+h+E 7 8 8 b b a i+f.f.",
"8 j+k+l 3.3.l+m+u n+d.A.E.(.'.'.'.;+..p.o+7 8 a 2+a 8.8.l p+v.c.",
"  q+H c.8 8 a k k H 8+7 c.r+s+p.p.t+T u+t v+7 u a w+8 8 I.x+(.  ",
"  y+i '.8 8 z+b l a l k _+A+B+C+C+D+E+T u k H E 7 F+b b (.x+p.  ",
"  G+l `.8 8 H+7 a u H k 8 3 E k k E i E i E 8 8 8 I+u u ..J+f.  ",
"    K+{.L+L+M+7 l 8 t 8.3 2+b a a E l k 7 8.8 E k N+O+O+(.P+    ",
"      Q+R+R+S+T+7 b u b 7 b 8 k k b k l 8 2+8 U+V+W+X+X+Y+      ",
"        9 9 Z+`+3  @0 E j 8 7 a a 8.8 .@8 E a.k O +@` `         ",
"            @@#@$@F.>+7 E k 8 8 8 E H 7 i 3 u+f.f.%@            ",
"                &@*@H 3 8 b a 8 8 0 j $@=@O+O                   ",
"                  -@;@>@,@'@,@$ $ & &.)@!@~@{@                  "};
