/* XPM */
static char * floor_xpm[] = {
"31 32 493 2",
"  	c #333A54",
". 	c #112530",
"+ 	c #11252E",
"@ 	c #172830",
"# 	c #152930",
"$ 	c #19282F",
"% 	c #172832",
"& 	c #1B3033",
"* 	c #1E3733",
"= 	c #1A2833",
"- 	c #193634",
"; 	c #132F30",
"> 	c #1C3B33",
", 	c #1B3C31",
"' 	c #122631",
") 	c #173430",
"! 	c #162E32",
"~ 	c #162A33",
"{ 	c #162832",
"] 	c #193036",
"^ 	c #2B4F35",
"/ 	c #294B33",
"( 	c #1F3A35",
"_ 	c #203933",
": 	c #163633",
"< 	c #132330",
"[ 	c #12262D",
"} 	c #5B6986",
"| 	c #1F4D40",
"1 	c #183B3F",
"2 	c #163D3C",
"3 	c #1A3D41",
"4 	c #2E6744",
"5 	c #193C40",
"6 	c #245540",
"7 	c #1D3F3E",
"8 	c #2D6645",
"9 	c #1A3C3E",
"0 	c #193D3D",
"a 	c #193B3C",
"b 	c #21553F",
"c 	c #336C43",
"d 	c #306D44",
"e 	c #245343",
"f 	c #245842",
"g 	c #255D40",
"h 	c #316942",
"i 	c #224E3F",
"j 	c #347847",
"k 	c #3D8A46",
"l 	c #286440",
"m 	c #275E41",
"n 	c #265C42",
"o 	c #1B3D3E",
"p 	c #19403D",
"q 	c #7C88A2",
"r 	c #1B3D3F",
"s 	c #1D423A",
"t 	c #183B3D",
"u 	c #26523B",
"v 	c #1A423A",
"w 	c #163D42",
"x 	c #255C3F",
"y 	c #275440",
"z 	c #3B7E48",
"A 	c #1E423E",
"B 	c #1D403C",
"C 	c #1B433B",
"D 	c #23493C",
"E 	c #17393B",
"F 	c #2B5C3F",
"G 	c #2A5B3D",
"H 	c #235741",
"I 	c #245C3F",
"J 	c #20433C",
"K 	c #235942",
"L 	c #377246",
"M 	c #3D8748",
"N 	c #245C43",
"O 	c #265C44",
"P 	c #1F4B3E",
"Q 	c #C1C9DC",
"R 	c #3F8A49",
"S 	c #3E8948",
"T 	c #23533B",
"U 	c #1A3D3F",
"V 	c #235441",
"W 	c #275C40",
"X 	c #275B44",
"Y 	c #2D6741",
"Z 	c #306A41",
"` 	c #265D40",
" .	c #3B8145",
"..	c #3B8A48",
"+.	c #2D6A3E",
"@.	c #265C45",
"#.	c #3E8944",
"$.	c #2F6941",
"%.	c #275C42",
"&.	c #3E8849",
"*.	c #245C41",
"=.	c #255D44",
"-.	c #357543",
";.	c #BFCBDB",
">.	c #163E3E",
",.	c #193C3E",
"'.	c #26533E",
").	c #1B3A3D",
"!.	c #225542",
"~.	c #1A3C3D",
"{.	c #275F46",
"].	c #296144",
"^.	c #2B6745",
"/.	c #51A74C",
"(.	c #459445",
"_.	c #2C6846",
":.	c #2A6342",
"<.	c #306A42",
"[.	c #2B6944",
"}.	c #367944",
"|.	c #3A8B48",
"1.	c #418949",
"2.	c #2B6741",
"3.	c #3E8946",
"4.	c #205342",
"5.	c #387742",
"6.	c #77839B",
"7.	c #183C3A",
"8.	c #183C3C",
"9.	c #255440",
"0.	c #173E3D",
"a.	c #235E40",
"b.	c #275B45",
"c.	c #2D6646",
"d.	c #449045",
"e.	c #327041",
"f.	c #2F6742",
"g.	c #2C6343",
"h.	c #326F43",
"i.	c #418749",
"j.	c #3E8344",
"k.	c #3D8948",
"l.	c #285C46",
"m.	c #286141",
"n.	c #27523E",
"o.	c #204A40",
"p.	c #357541",
"q.	c #8A9CB4",
"r.	c #255B43",
"s.	c #255B41",
"t.	c #1C3B3D",
"u.	c #337641",
"v.	c #3C8847",
"w.	c #1B3A3F",
"x.	c #1C3C3B",
"y.	c #1B3B3A",
"z.	c #357340",
"A.	c #3C8C47",
"B.	c #59B64B",
"C.	c #23553C",
"D.	c #1D3A3E",
"E.	c #62C74D",
"F.	c #2D6643",
"G.	c #3F894A",
"H.	c #8C9CB5",
"I.	c #265A43",
"J.	c #27543F",
"K.	c #41894A",
"L.	c #193C42",
"M.	c #225043",
"N.	c #1C443C",
"O.	c #2B6743",
"P.	c #316B43",
"Q.	c #1D4039",
"R.	c #1D423B",
"S.	c #234F3E",
"T.	c #2A5541",
"U.	c #316B42",
"V.	c #367443",
"W.	c #3C8746",
"X.	c #64C64F",
"Y.	c #5A6988",
"Z.	c #285D41",
"`.	c #183A3C",
" +	c #1B3A3C",
".+	c #193B3A",
"++	c #3D8847",
"@+	c #316B45",
"#+	c #337643",
"$+	c #408848",
"%+	c #2C6844",
"&+	c #255D42",
"*+	c #2C603C",
"=+	c #5BB64F",
"-+	c #235E42",
";+	c #265B3F",
">+	c #A7B1CA",
",+	c #265B41",
"'+	c #255640",
")+	c #1E413D",
"!+	c #25553F",
"~+	c #296146",
"{+	c #285D43",
"]+	c #448D48",
"^+	c #2A6843",
"/+	c #326C43",
"(+	c #3D8949",
"_+	c #296242",
":+	c #295B42",
"<+	c #225640",
"[+	c #1D413D",
"}+	c #275D45",
"|+	c #337341",
"1+	c #3B8A49",
"2+	c #2F7046",
"3+	c #295E40",
"4+	c #5EB74B",
"5+	c #3E8A4C",
"6+	c #2C6544",
"7+	c #C2CBDC",
"8+	c #3F8A47",
"9+	c #173D3E",
"0+	c #306841",
"a+	c #3E8A4A",
"b+	c #245A42",
"c+	c #316A41",
"d+	c #286846",
"e+	c #3C8945",
"f+	c #63C74B",
"g+	c #5AB74C",
"h+	c #3D894B",
"i+	c #418947",
"j+	c #307244",
"k+	c #2E6842",
"l+	c #377641",
"m+	c #2D6343",
"n+	c #1E463E",
"o+	c #387C41",
"p+	c #397E45",
"q+	c #337746",
"r+	c #306344",
"s+	c #2B5841",
"t+	c #2B6443",
"u+	c #2E6B41",
"v+	c #3B7F46",
"w+	c #377544",
"x+	c #275D43",
"y+	c #2A6144",
"z+	c #449247",
"A+	c #3A8243",
"B+	c #3C8246",
"C+	c #2F6940",
"D+	c #367143",
"E+	c #377542",
"F+	c #5B6A89",
"G+	c #255C47",
"H+	c #3C8848",
"I+	c #3B8B46",
"J+	c #63C54A",
"K+	c #3F8747",
"L+	c #408846",
"M+	c #3C8043",
"N+	c #63C450",
"O+	c #2A603E",
"P+	c #387343",
"Q+	c #2D6A40",
"R+	c #4FA647",
"S+	c #1C403C",
"T+	c #408849",
"U+	c #52A847",
"V+	c #377B40",
"W+	c #397A44",
"X+	c #3F894C",
"Y+	c #428E44",
"Z+	c #357344",
"`+	c #397D44",
" @	c #4A9747",
".@	c #1C413A",
"+@	c #367546",
"@@	c #5B6888",
"#@	c #3F8A45",
"$@	c #2F6646",
"%@	c #306940",
"&@	c #418A45",
"*@	c #326D41",
"=@	c #346E45",
"-@	c #337044",
";@	c #3E8247",
">@	c #235240",
",@	c #1C3B40",
"'@	c #285A3F",
")@	c #B3BED2",
"!@	c #439243",
"~@	c #3D8C4B",
"{@	c #347442",
"]@	c #418844",
"^@	c #3E7B40",
"/@	c #275D46",
"(@	c #235D44",
"_@	c #8F9BB1",
":@	c #254E3C",
"<@	c #193B3D",
"[@	c #2D603F",
"}@	c #2E6442",
"|@	c #326A43",
"1@	c #2B6441",
"2@	c #1A3E3C",
"3@	c #1A3E3E",
"4@	c #26533F",
"5@	c #326F45",
"6@	c #28583E",
"7@	c #346C3F",
"8@	c #367943",
"9@	c #295F3F",
"0@	c #8C9AB4",
"a@	c #285D3F",
"b@	c #20403D",
"c@	c #63C64F",
"d@	c #2E6B3F",
"e@	c #275C3E",
"f@	c #255942",
"g@	c #1A3B40",
"h@	c #63C74D",
"i@	c #74839A",
"j@	c #255641",
"k@	c #173B39",
"l@	c #18393E",
"m@	c #1A393B",
"n@	c #56AD4C",
"o@	c #326942",
"p@	c #367445",
"q@	c #295A44",
"r@	c #21503E",
"s@	c #20453D",
"t@	c #28553E",
"u@	c #347243",
"v@	c #C0CBDD",
"w@	c #245341",
"x@	c #1C3B3E",
"y@	c #204E41",
"z@	c #4FA34B",
"A@	c #347845",
"B@	c #2A6343",
"C@	c #1D4141",
"D@	c #1F4F41",
"E@	c #C1C9DE",
"F@	c #163D3A",
"G@	c #3E8A49",
"H@	c #54AB4C",
"I@	c #428947",
"J@	c #3D8845",
"K@	c #C2CADD",
"L@	c #306D43",
"M@	c #224A42",
"N@	c #1E463D",
"O@	c #306E3F",
"P@	c #1B423D",
"Q@	c #27573F",
"R@	c #244F3E",
"S@	c #204A3E",
"T@	c #285C45",
"U@	c #63C749",
"V@	c #1D453C",
"W@	c #347742",
"X@	c #4EA348",
"Y@	c #23543F",
"Z@	c #193A3F",
"`@	c #347744",
" #	c #173E3B",
".#	c #215441",
"+#	c #367B44",
"@#	c #183B41",
"##	c #357845",
"$#	c #5D6B85",
"%#	c #255B44",
"&#	c #224A41",
"*#	c #1B3939",
"=#	c #377C46",
"-#	c #2C6447",
";#	c #347440",
">#	c #20463B",
",#	c #2A6245",
"'#	c #1A433D",
")#	c #22453E",
"!#	c #245F43",
"~#	c #428444",
"{#	c #3D8148",
"]#	c #337140",
"^#	c #357342",
"/#	c #1A3A37",
"(#	c #25573C",
"_#	c #2F6744",
":#	c #2F6D46",
"<#	c #367644",
"[#	c #24593F",
"}#	c #265A44",
"|#	c #1B3F3D",
"1#	c #173D40",
"2#	c #204F3F",
"3#	c #377647",
"4#	c #3C8045",
"5#	c #2E6747",
"6#	c #286442",
"7#	c #2F6B45",
"8#	c #1A3C3B",
"9#	c #8A9BB5",
"0#	c #20483F",
"a#	c #205040",
"b#	c #2E6C45",
"c#	c #25503D",
"d#	c #214F44",
"e#	c #235740",
"f#	c #285443",
"g#	c #225D41",
"h#	c #6B7791",
"i#	c #1F443D",
"j#	c #285943",
"k#	c #2D6444",
"l#	c #21473A",
"m#	c #214940",
"n#	c #214C3B",
"o#	c #2A6040",
"p#	c #2A6644",
"q#	c #1F4B3C",
"r#	c #193D3B",
"s#	c #296241",
"t#	c #21473C",
"u#	c #28613E",
"v#	c #1F3F3C",
"w#	c #357842",
"x#	c #296446",
"y#	c #20543E",
"z#	c #1B3E3A",
"A#	c #3C8B49",
"B#	c #2C5F40",
"C#	c #3E8B47",
"D#	c #306F40",
"E#	c #1D413F",
"F#	c #224C3E",
"G#	c #377340",
"H#	c #265543",
"I#	c #21503C",
"J#	c #1E433C",
"K#	c #19403B",
"L#	c #1C3E3D",
"M#	c #24543E",
"N#	c #1F473C",
"O#	c #1C433E",
"P#	c #26583F",
"Q#	c #306843",
"R#	c #234E3D",
"S#	c #1D3B3D",
"T#	c #29593F",
"U#	c #2A623F",
"V#	c #1B393B",
"W#	c #19383A",
"X#	c #265541",
"Y#	c #28533F",
"Z#	c #2D6A41",
"`#	c #1A433B",
" $	c #1B3F3B",
".$	c #204C3B",
"+$	c #1C453D",
"@$	c #316E44",
"#$	c #1C403E",
"$$	c #252D40",
"%$	c #101C28",
"&$	c #102129",
"*$	c #0D1929",
"=$	c #0C1A25",
"-$	c #1F3131",
";$	c #19242A",
">$	c #1C272D",
",$	c #172528",
"'$	c #1E2C2F",
")$	c #1A2A29",
"!$	c #19212C",
"~$	c #0E1F27",
"{$	c #0F1829",
"]$	c #0F2027",
"^$	c #142D29",
"/$	c #172B2A",
"($	c #102226",
"_$	c #152429",
":$	c #1E272C",
"<$	c #1A222D",
"[$	c #192428",
"}$	c #212F30",
"|$	c #1A2829",
"1$	c #1C272B",
"2$	c #0D1925",
"3$	c #0E1A28",
"4$	c #0C1A27",
"  . . . + @ # $ % & * = - ; . > , ' ; ) ! ~ { ] ^ / ( _ : < [ ",
"} | 1 2 3 4 5 6 7 8 9 0 a 5 b c d e f g h 0 i j k l m n o 9 p ",
"q r s t u v w x y z A B C D E F G H n I 4 J K L M n N O 1 9 P ",
"Q R S T U V O W X Y Z ` R  ...+.n ` @.#.$.%.O &.*.O =.O -.U g ",
";.>.,.'.).!.~.%.n {.].^./.(._.:.<.[.X _.}.|.S 1.g n 2.3.U 4.5.",
"6.7.a F 8.9.0.a.` %.b.c.d.e.b.%.f.g.*.h h.i.j.k.n l.m.n.o.Z p.",
"q.n r.C k a O s.v t.u.v.w.x.~.,.y.k.h O z.A.B.S s.C.D.E.F.G.=.",
"H.I.l.J.K.L.0 =.M.N.O.P.N.Q.R.S.T.U.g.V.h.d.W.P.@.P 1 X._.k.s.",
"Y.X Z.%.n k s.O u.W `.t ~. +%. +.+++@+W #+$+%+&+W *+=+k.&.-+;+",
">+g ,+'+r ` R 1.~.,.9 8.O )+k.g.!+%+~+W :.$+F.{+O ]+1.^+1.s.s.",
"H.O.O /+S (+f.0 5 t _+:+<+[+}+%.<.R |+s.@.1+2+3+4+%.8 k 5+$+6+",
"7+8+` s.N n 9+(+0+a+0+x ~.8.b+&+c+k &.O %.s.S d+e+f+g+h+h+3.i+",
"7+j+-.k+l+m+n+$.o+k p+q+r+s+N {+t+u+v+w+Y x+U.y+z+A+B+C+D+3.E+",
"F+1+G+H+$+I+}+J+h+K+8+k L+M+N+O+` X P+$+Q+N n R+8.S+G.&.,.-+T+",
"Y.U+k.V+^.S ^+k $+S W+X+&.S G.Y+Z+&+`+k.3.%. @9 t .@+@0 | .+%+",
"@@F.#@G.++$@i+S %@&@*@4 =@-@3.(+;@g+ .S k.g+9 >@,@-@S '@{+n )+",
")@s.O !@~@O.=+S Z k ` s.h+{@%.-.]@3.0+%.^@S 8 &+X V.W /@&+(@ +",
"_@=.n :@1 <@Y+[@}@|@&+n g 1@O )+2@/+3@.+4@,+%.U.` 5@6@7@8@9@k+",
"0@a@x+b@0.9+G.c@d@L+X n n C+=.g $.^+ +e@V.s.N 8+f@!+g@,.:+h@-.",
"i@j@k@l@m@[+n@o@p@n ` g n q@$+r@s@,@P  +t@n &+u@$+<@R.,.R ` t+",
"v@w@,@<@x@y@z@%.A@W &+g N B@3.N.[+x@C@~.6@n n 2+$+a D@~.k.n &+",
"E@r.&+F@n 9 e+O ` &+` O {+C+%.` R.,.,.G@k.n H@I@J@s ,.w.` @.=.",
"K@L@R.M@g N@O@P@}+` k+U.Q@R@,.t a ~.S@T@{@U@X V@C+*@W@n &+}+S@",
"v@^.S a ,+X@Y@Z@t+%.`@h+~.o 9  #,..#m ^.+#f+%+@#L+##n ` n ;+b ",
"$#O %#&#*#=#-#;#>#W W ,#'#)#<@~.y.6 !#k.~#{#]#;+;+r.t+^#/#).a ",
"Y.W &+(#9 _#:#<#9 N [#}#,.|#1#8.g@2#'+3#4#k.%.5#%.6#7#`@g@a 8#",
"9#{+O 0#8.a#b#E+0.!.9 0 U <@a c#c#d#e#.+f#^.g@%+g#8#X L.0 7.V@",
"h#_+Z i#C j#k#;#l#<+<@,@9 <@x@m#n#o#p#.@q#` r#s#0+t#u#v#5 r#B ",
"Y.t+l+A G@5#O O w#x#8.0 9 <@y#z#)+A@Z A#.@>@r.,+R B#C#..9 ` 0 ",
"Y.D#E#F#G#6+H#t.I#)+J#S+K#L#M#N#[+O#P#Q#R#@#S#O# +T#U.n U#V#W#",
"Y.X#s.7.Y#Z#`# + $L#S.s S+8.p@.$N#O X W x+y.t +$v#@$r.n #$9+r#",
"$$%$&$*$=$-$;$>$,$'$)$!$~${$]$^$/$]$&$($_$:$<$[$}$|$1$>$2$3$4$"};
