/* XPM */
static char * new_xpm[] = {
"94 150 6 1",
" 	c #444444",
".	c #666666",
"+	c #555555",
"@	c #333333",
"#	c #777777",
"$	c #222222",
"   .+   +++. + +  ++++ ++   ..+++.+.    +++ + ++ @+     + +.++++++++  +++ +++.+ +++ ++++++++++",
"++ + ++.+++ @     ++++++  ++.+  ..  @ + ++ + @@@@++++ +.++++ ++   +++  +@+++++  ++++.+   +.+++",
"  ++++.+++     + +..+..   +.+++++ +@  ++   @@@    +++ ++++++++ @++   @   ++++ + +++ ++ ++++++ ",
" +++ + +++ ++++ + ++++ ++ #+++++++ @+ +    @   +++   ++++++   @  +  + +.+++   ++++  ++  ++++ +",
"  +@+. .  +.+. + ++.+++.+.++++ .++@    +    + +    + +.++      ++  + +.++. + + .+  +++  ++++ +",
"++++.++ @  + +++++..+++ +    +  + + ++++++ +++.+  +..++  +  +++     + +    +.++   + + @   ++  ",
"++   +  @++++.+++...+ +  @  ++++    + + ++++.++  +++.   +.@ +  +@+ ++ +    .++++ .+@  @+ + + +",
"++ +++ +.++++ + ++.+ +      +. +     + +++ +++  ++++ +  + +  +++  ++ +   +++ +  +   +   +++ +@",
".+++ + ++ +.++ + .+ + + @+++.+ +    +  +.++.+ + ++++++++++ @.+.+ +  +++  ++ ++  +    @@+ +++  ",
"++++++++ +  ++   + @   @++++ ++ + ++    .++   +++++++++    ++.   +      +++.++  ++ +  + +++ @ ",
"+.  ++++  ++    +.+     +  @++@+    + ++++++  +++.++++@ ++ ++++@+ ++++ ++.. .  ++ +. + . + @+ ",
"++   + +  ++. ++++@   + + + +++  +@   ++++ + +.++   ++      ++@  +  . +.+  . + +@+         @  ",
"++  +  +++++ +++++@ + @  ++ +     ++  + ++  +.. ++ + +@@   +    +++++ ++++.+ +  + +    +  @ + ",
"+   +      ++ +++   ++ .++   +   +  @    + +.+  ++   +@   +         @+  @ +   +    + +        ",
" + + @+++++.  ++++ ++ .+.   ++ + + @     +..++ ++   ++ + ++  + @ @ @ +   ++ +++@   . +   ++  +",
"  +++ +   +++..+++   + +   ++  + +   + +. ++++@ ++     @@@  @ @    ++   ++++     +   +    @ ++",
" +++@ + + ..++++. ++ + +   +  + ++   ++.  ++    +  @+@@$ @+    @ @+++ +++++@+@@ +  + +    + ++",
"+   ++  ++++++++ ++++ +  @ +@+.+++ ++ +  .+.++ +++    @ + ++@   @    +++  @+  + +   ++ @+  +. ",
"  ++ +.++ .++ ++ . + + +    +.+++@+  @ +++.  + .+      +  +    @ @  + +    +  +         +++++ ",
"++++ +    ++++.+.+  .+  + ++.+ @@ ++ + +  + .++   ++@@   @+   +++  ++   @ +  ++  + + +  +  + +",
"+++. +       ++. + ++  + +.++  +@ +  ++++++ + +++          +  +   +. @   +  ++  +      + ++ + ",
"+    @   +++++     @  @ @  +       +  + ++++        @@     +     ++ +   +.++  ++ +++ .+ +     ",
" +++@@   ++++.   +    @   + ++  @+ ++   + +  .+     @@ +@       @+  @ ++..+    +  ++++++  @  @",
"+ + @  ++.+++.@ +      @ +     @ @  + .     + @ +   @@ + @ +         + +++ +++++ ++          +",
"+.+    +++++++ + +@   @@++  ++    + ++ + ++    + @ @   +@ @      + + ++ .+ ++ ++ +     @++  +@",
"  @  @+ +++      +   +  ++ + +  @@+++ + ++  +  +@ @       + +   @@     . ++ @ ++ + ++    + + +",
"++@  @++..     +  ++   + +  + @@  ++   +   @++++   +  +  ++     @   @@++.+ @  +  + +        + ",
"++@  + .+.  + ++ ++++  ++   @    +.++++   @+++ @  +     +    +      ++++   ++++++ +   +   ++ +",
"+  ++ +.++  ++ + +.+.+  +   @ @ ++++++    +++    +    +  +@     @+  + +     + .+++ @     + +++",
"  + ++.+      +++  + @+ .+ ++++.+++++ @ ++ ++  ++     +      +    ++ + +++++ + + +++++ + +.+  ",
"++    + +++ ++ + $     + + + ...  ++ @ +  .+  ++++ ++.+ ++ @++  +  ++  .++ +++ ++++ +  ++++.@+",
" +++.+++  +  ++    +  +  ++ .+++  ++ +.+ +.+    + +.+  + @@ ++   @ + +.+++++  ++.+++    +  +  ",
" ++++ + ++   ++  @ +@  +++ +. ++ ++++ + +++   ++  +      @@+ +  @@++ .+++  + + .+.+   + +  +  ",
"+++++++.++ +++@  @ ++ +  ++      +++ +++++++ +++++    @ @@+ +   @ ++++@+@++ + .++. +   + +  ++",
"+++++ ++.+  +      + +   +     ++++ ++ +++++++++   + @@  +    @@  + +@  + +  @+..++ @  +++  ++",
" +++  ++ +@+++@ +++  +++.+ + +++++    +    +  +   +@@ +   @@ @ @     ++  +++@+.++ @@ @++   +.+",
"+ +++    + + @+    +++++      ++++   +   + +     + @       @  @         +++ ++.++     ++ +  ++",
" +++  + ++ @  +++ +  ++++ ++ ++++  +  + ++. ++  ++  +     @+ @++ + . .+ + ++++  .. +          ",
"       +++ @ @ +   +++    ++++. + ++ + ++.  +    +  +           ++++++++ ++++ +. + ++ ++ +    ",
"  +++++.   +++++  + + +.  .+++  ++   @+++   + + +  +   ++   + ++++  +   + .+ ++++.  @ ++   @  ",
" +. +++ +   +++  ++   + + .  + +    @ + ++    ++      + + +++ +.    + ++ +  ++ ++++@  +       ",
"++  + ++ ++.+  +.+  ++++  ++++ + + @+ +  +  + + @+++   +         +++++  ++++..  ++@+@ + ++@+ +",
"+ ++ + + +++   ..++ + .   ++  ++++  @@ ++.@  + @+. @+ ++    @     ++    +.+ +++++    +    +++.",
"++  +.+  +.  +.+    + +  ++++   +@  + + ++@@+  +++  ++ +@     + ++ + +++++++.+@   ++     +  + ",
"   + + + +++ ++  + ++@++ ++  +       @+++ @    ++ @+++ +    +  @+ + + +++++.+ + +   ++  +++   ",
".+ +.+++   + @ +++ @  +   +++  + +++ +  ++ @ + +++ ++   + @+  +@.++  +  + +      +    @   ++++",
"++..++     @   +++       + +++ ++++++ +  +@+ + ++ +    +  +  +  + +   + +  ++  @+  +@    +++.+",
"+ +  ++ +++++ +++ @ + + ++.+ ++++.+.+ + ++  + + +.++ +++++ +    ++  +  +++     @+      +   +@+",
"+   .+   ++ + +.  ++   +++  .++++++ + + +++ + + .++ +++        + + @  +@   @      @ @@ + ++ ++",
" .++ ++ +  ++ +    @  +  +++  + ++  +  +@  +  ++.+     +        ++ +++  ++@ +    ++ .+. +++ + ",
"+++++.+@  ++    @     + +.+  +++@  .@  @++ ++++.+ @  @  @ + +++++ ++++ + + +++ + ++++++ +++  +",
"++++   ++++  +  + + +  ++ @++ +  +   +        .  +  +        +  +++++   +   ++  +  +   +.  @++",
"+++ ++   ++@      +    +  +  +    ++   @+@  + +  +@  @   ++ + +. +++ @   @++   +  +  ++++   +@",
"+  + + +++ @  ++  ++    + +++++     + @+ + ++++  ++ ++++   ++++ +         .   +@ @+ ++  @     ",
"+++ +.++++  +    @+   +++  ++ +  ++.@ +++ +.+++@..  +++++++ ++ .@  + @  + +  + @ @  +   @  @ @",
"+++ +++ ++     +@     +++       ++++ ++  +++ + ++ @++++ +  ++++   ++ +++++  . +   ++ +@ ++    ",
"++ +     +   +             +   +++++ +    + .++ +++++++     +  + +  + +++ +++     + ++++      ",
"++ ++.++++ @+ + .  +. +++   ++++++++  ++ + + +@   +      ++++.    ++ +     + +@ + ++ +    @   ",
"++..+ + .     ++  ++ + +   ++++++++@ +     +    +.   + + +++++ @++   + @ +++ @    ++         +",
"++..    +   +   @      ++  ++++ +   .+   +++  ++.        +  +  + +   @ ++  @@   +++@ @    @ + ",
"..++++ ++   +  @ +  + +. ++ +++ +   +   ++++   ++      + +   +   @  @+ ++ @  + @+  @       + .",
" .+        +    ++@  ++  + +   +@  +         +++     . .++  +     +            ++  ++ ++  + + ",
"+.     +       ++     ++++  +   @ ++   + @   + +@@@ +.++++   @@  @ + +    +  + ++++.  +++  ++ ",
"..  + ++   +     +  + ++@+@   ++  ++ @+@  + .+@   ++++  +@      @+.++ ++++  +++  +   ++ @+++ +",
"+.++ +   ++ +@    + +    +@  ++  ++      @ +   + @++++ +   @ @   . + ++.+  ++ + +++++++  ++  +",
"  @+    +@  @ @+   @@@  ++  +    @@  @ @@   +   @ +++     @ @ + + + ++  @ ++  @+++ @++   + +++",
"++++  + @@ @@ +  + @  +++    @++     + @+  +++ @   +    @@ @@++++ +   +    @ @ ++    @   +++++",
"+++  @@ @@@@@@ @   @+ +   @  + +@++++ @ @  +++   +  @ @@  @+  +  + + + + ++ +++.  +    +@ ++++",
"+++   @  @@  @@@  @@ +         +++  +    +++ @@+ + +   @ @ +@  + ++   ++++ ++++++ +  +   ++++@",
"++@ @@+ @+      +   +    + ++  +     @ @ + +  +    +    + @+  ++    ++++        @   ++ +++ +@ ",
"+  +@  +  @ ++ +++ +++   . +++++@ +     + +@   @          +++  ++++ .++++ @    + ++++ +++ +   ",
"      +   ++  +  + +   .+++ +++ @  ++ @ ++  +   ++       @.++++ ++ +++@@  @  + +++++++++++ +  ",
" + @  +  +  + + +     ++++++++ @  +  @ +   ++  +   @   @  ++ ++ +  .++   @@ + ++  +++ ++++  ++",
" +  +   ++@         ++.++++   +  +@  + +  +@@ @      +@ + + ++ ++ +   @ @ ++++. ++ + +@     ++",
"   @ @++ + +@      ++++ ++    @     ++    @@  @    +   +   +++++ ++ + @  ++ ++    ++     +  ++",
"+ @+@+ ++ +  ++  +  +++++ + .++ @   ++ @+   +  +++ +@ +  +.. +  @+ + + @   +++   + +  @ ++@   ",
"+     + +++++ @   ++ ++ + ++   @ ++ + @@ @@     ++ + +@  +++++@  +    @  +++.++ +++    + +@ ++",
"+    +++ +@ @  + +   ++.++   @  +  +    +++   +++    ++ ++ ++++ + +  +     ++  ++ +   ++  ++ +",
"   + . + +  @+ +    +.+.++   @+   ++  + ++    ++++ ++++++.+++++ +    + + ++++  ++.+@+.+ ++ +  ",
"+@ +.+  + + ++++   .+++   +@        +   +    +++  ++ .  .  ++      + + +  +++ +++@      +  @  ",
"   .  +@    ++++  ++.    +     +  ++@+  ++  + + +++ +.++  +. +@+ @+@++++  +++  ++   .++ +     ",
"+ . +. +   +++  @ +++ ++++@   ++ +  + +  + +++++ ++ +    @.    @ +++++  @++++ ++++.+++ +..@+++",
"++++++    + ++  @ ..  +.   +  ++  + ++++++  ++ ++++ +   @  +@   +++ + @   .+  +++++++++..++ + ",
"++ +++    +. +    ++ +++@ +  ++.  +++  @+   +++ +.   +    .+@   .+@ +. +++++ ++++.+ + ++     @",
"+++. +  +++ +    +.++++@  + ++.+ + ++  @   + +++++  +  + ++ + ++++++. +++++++++ ..  ++    @@@+",
"..+++  @++ + +++      @ +  +@     +  + ++ .+..+ ++  + +   +  ++++. + ++++++++ +++++++ +  +  + ",
"+  +    .++@+++ + ++  +        +@+ @ ++  +++++  ++ +++   +  ..++++  +.+++.+++++++++ +   ++ +  ",
" +     + + ++ +++     @  ++  +.++  +++ ++++++ + ..+   ++  ++.+ +++ +. +.+++ + +  +   ++ +@@   ",
" + . ++ ++ ++    @@+ + +++  ++ + ++ + ++ +  + +++    +  ++..++ ++++.+  +++++ ++  ++ ++   @  + ",
"++.+. + +++ @ +       ++  + +      +@ .+  ++ + +++ + ++. ++++ . ++++++. +      +++ ++    @++ +",
"++++++  ++    + @@  ++  ++++   +    ++  +   +++.   +++.+++++ ++ +++++.++  +.  .++ ++  +@  ++ +",
"+++     + ++ +       + +++ + ++  ++  + +  ++ +    +++ ++ +.+.+++ +++++  + +   .+ +   +   +++ +",
"++     +++  ++  @ +++++++ ++    ++  +    ++ ++ +@++++ + ++.+. + +++++++++ ++++++++   + +  +   ",
"+   +++  + +   @    +++  +++  ++++ +@++ + +++ +@+  +  ++ +++@ + +++   ++ +++ +++++ +.++   +++.",
"+   .+++++  @@@  + +++   +++  ++ @ +   +  + +.      ++  ++   +++++  +++ +++. + +++++++   +++++",
"@ +.+++@  @@  + +++ ++  ++   ++ @ +  +++ +++++ +++ +++ ++++++ ++++++++ +++.+ ++++.++ +    +. +",
"++++++ @ +   +   +++++  +    ++@  ++ ++ +@+++++++ ++++++++++++++++++ +++ ++ ++++.. +.++ ++.+++",
"++.+    ++ ++   +++++  + ++ .+    +      ++++      +++ ++  ++++++.++  +.++ + .+.++ +  + + +. +",
".+++ @  +.+.  +++++. +  + +++ @@+@     +++++ ++@@@++++ ++++++ .+.++ + +  ++++..+++++  + +@..++",
" ++   ++++ @  +++++ +@ +   @ @  @+ +       +   ++ ++ +   + ++ +++     +.+++.++++ +@@++   +.+++",
"++ +   .++  ++++..+.@  +++   @ @++ +  ++ +   +   + +  ++ ++ +++++    .+.+.+#..+  + ++   ++.+++",
"+    ++   ++. . + + ++++ ++    ++ + + + +++++.  + +  + ++ ++.+ ++  ++++ + +@  + + + ++  + ++  ",
"   ++ +  . +++ @++   ++.++++   ++   ++  ++ +++   +  +++++++++  +  +++.  +   ++@      +  + + +.",
"+ +  + + +.+++ ++++ +++ ++  @+   +++ ++++ +++.  +  ++++++++ +  +   ++ + +++   +  + ++    +  ++",
"  ++++ + .++++ ++   +++++  @    + +++++ + +.++    +.+++++ ++ ++  ++   +@+   ++@ +++   @  + ++ ",
" +   + ++ .+ +  +  +++++@+   ++++++++ + +.+++ @   +.    ++.+. ++.  .++++++. +.+ ++  + ++++ ++.",
"   ++. + +. ++ +   +    ++ @   + +..++ ++++  + + +++ @+. +. +++++ ++++++..+ .+ +++ +   ++ ..++",
"+++ .+  ++ . +   +.+   +    ++++  .  .  .+ +..    . @ ++++ + ++ +++ + ++++@ .+++ ++ ++++  +   ",
"  +++++++..+   ++++ +  +   + +   .++++++.++.++   ++   ++ + ++ +++++   ++   +++++++ ++++++  +++",
"++++ +++ +     ++  +  +   + @@ +++++  ++++++  @@   ++ +  . .+ +    + + +++ +. +   ++    @+ +++",
"+++++++ +    @+.  +++++   @ @ ++.++++++.++++  @+  +++   +.++++ + + +  ++   .++ + +++ + @++.+++",
"+++  +  + +++ ++  ++  @+ ++ .+.++++ @++++ .++ +  @++   ..++.   + +++   ++++++   @     +++++ ++",
" . ++  + + ++ ++ .+@  +++  +    + +  + + ++    @  + + +.++  + + +    ++++++         +++++ +++ ",
"+   ++.++    +++++      +   ++++++  +++++.  @ @@ + + +++++ + +@+ + + +++++   + +  +++ ++@ + + ",
" +  +.++   +++++ + @++ +   + + +++  ++ +.+@   @+ + +++++ + +  @   +++++.+  @++++ +++ +  + + + ",
"++  .+    ++++ .++ +++++ +. +  ++ + +.+..+ @  +   ++++++. +@+ @  + + +++ ++++++@+ ++ +. ++++ +",
"+++..+ + @++++.+++ +   + .+ + +    +++.++ @   @  +  .   ++@+     +  . + ++++++   ++ .+++++++ +",
"++.+ +@    +++ +   @+++ +      ++ +++  +   +  + .+ + ++ +++ +   ++++.+ +++ ++ . ++++..+++  +++",
"+.  +     +++ + +  +  ++       ++ +   +   +   +++ +++++ ++    ++  +.+ +++++ +  ++.++++++   .++",
"+  + +   ++. ++  ++  .+   ++++.+ . ++ ++ +++++   + +  @ ++@  +   ++  +++++   +  +  + ++   . ++",
"+   +  + ++  +  ++  +++  ++++.++++++  +++++ +@ + +  @      +   +      +  +   + + + +++  +.+ ++",
" + +  +++ .+++  + +  +  ++++ @ +  ++..+++  +  + .+ + + +  +       ++++++++  ++  + + +++.+  ..+",
" +   + + +++  +++      . +++ +++ + ++ ++  ++++  + ++  +++++  +++  +  ++ +.+++ ++ +  ++ .  ..++",
"+ + ++++  ++++++.+++ ++  +++  +++++++.+ +.+.  + ++    .        +@ ++ + +++@  @ ++ ++++  + .+++",
"++  +++++.+++++.+ ++ ++++ +   + .+++ ++ +++++     + ++   @ @  + +++  + .++  + ++++ ++@ +++  + ",
" + + .  +.  ++ +@ ++  ++ ++ + +++++ +++ ++       + +++  @  ++++  +++++.+. ++ +++. ++@+.++++++ ",
" + +++++..++++   +  +.+++. ++ +. + +++ +.++    ++++++  @  ++++  +  .+++++++ ++..+ ++ +.++ ++  ",
"  ++.+.+++@ ++  . + .+.+     .+++.+++ + + ++++ +   +@    + ++ ++ +++++++ + +++.++++++++   ++ +",
"   .+   +++. + +  ++++ ++   ..+++.+.    +++ + ++ @+     + +.++++++++  +++ +++.+ +++ ++++++++++",
"++ + ++.+++ @     ++++++  ++.+  ..  @ + ++ + @@@@++++ +.++++ ++   +++  +@+++++  ++++.+   +.+++",
"  ++++.+++     + +..+..   +.+++++ +@  ++   @@@    +++ ++++++++ @++   @   ++++ + +++ ++ ++++++ ",
" +++ + +++ ++++ + ++++ ++ #+++++++ @+ +    @   +++   ++++++   @  +  + +.+++   ++++  ++  ++++ +",
"  +@+. .  +.+. + ++.+++.+.++++ .++@    +    + +    + +.++      ++  + +.++. + + .+  +++  ++++ +",
"++++.++ @  + +++++..+++ +    +  + + ++++++ +++.+  +..++  +  +++     + +    +.++   + + @   ++  ",
"++   +  @++++.+++...+ +  @  ++++    + + ++++.++  +++.   +.@ +  +@+ ++ +    .++++ .+@  @+ + + +",
"++ +++ +.++++ + ++.+ +      +. +     + +++ +++  ++++ +  + +  +++  ++ +   +++ +  +   +   +++ +@",
".+++ + ++ +.++ + .+ + + @+++.+ +    +  +.++.+ + ++++++++++ @.+.+ +  +++  ++ ++  +    @@+ +++  ",
"++++++++ +  ++   + @   @++++ ++ + ++    .++   +++++++++    ++.   +      +++.++  ++ +  + +++ @ ",
"+.  ++++  ++    +.+     +  @++@+    + ++++++  +++.++++@ ++ ++++@+ ++++ ++.. .  ++ +. + . + @+ ",
"++   + +  ++. ++++@   + + + +++  +@   ++++ + +.++   ++      ++@  +  . +.+  . + +@+         @  ",
"++  +  +++++ +++++@ + @  ++ +     ++  + ++  +.. ++ + +@@   +    +++++ ++++.+ +  + +    +  @ + ",
"+   +      ++ +++   ++ .++   +   +  @    + +.+  ++   +@   +         @+  @ +   +    + +        ",
" + + @+++++.  ++++ ++ .+.   ++ + + @     +..++ ++   ++ + ++  + @ @ @ +   ++ +++@   . +   ++  +",
"  +++ +   +++..+++   + +   ++  + +   + +. ++++@ ++     @@@  @ @    ++   ++++     +   +    @ ++",
" +++@ + + ..++++. ++ + +   +  + ++   ++.  ++    +  @+@@$ @+    @ @+++ +++++@+@@ +  + +    + ++",
"+   ++  ++++++++ ++++ +  @ +@+.+++ ++ +  .+.++ +++    @ + ++@   @    +++  @+  + +   ++ @+  +. ",
"  ++ +.++ .++ ++ . + + +    +.+++@+  @ +++.  + .+      +  +    @ @  + +    +  +         +++++ ",
"++++ +    ++++.+.+  .+  + ++.+ @@ ++ + +  + .++   ++@@   @+   +++  ++   @ +  ++  + + +  +  + +",
"+++. +       ++. + ++  + +.++  +@ +  ++++++ + +++          +  +   +. @   +  ++  +      + ++ + ",
"+    @   +++++     @  @ @  +       +  + ++++        @@     +     ++ +   +.++  ++ +++ .+ +     "};
