/* XPM */
static char * player_xpm[] = {
"24 32 329 2",
"  	c None",
". 	c #0D0E20",
"+ 	c #171522",
"@ 	c #171624",
"# 	c #161523",
"$ 	c #282C47",
"% 	c #292D46",
"& 	c #2B2D46",
"* 	c #282C45",
"= 	c #212842",
"- 	c #242843",
"; 	c #222943",
"> 	c #212B46",
", 	c #2A2C45",
"' 	c #26283F",
") 	c #161421",
"! 	c #181624",
"~ 	c #181422",
"{ 	c #171523",
"] 	c #080D20",
"^ 	c #0C0F20",
"/ 	c #191524",
"( 	c #161422",
"_ 	c #3A4467",
": 	c #384568",
"< 	c #394366",
"[ 	c #3B4568",
"} 	c #374467",
"| 	c #3A4565",
"1 	c #3B4569",
"2 	c #303754",
"3 	c #0D0F1E",
"4 	c #384567",
"5 	c #394669",
"6 	c #3B4367",
"7 	c #3B4368",
"8 	c #3D4367",
"9 	c #3A4468",
"0 	c #323754",
"a 	c #161622",
"b 	c #0C0F1E",
"c 	c #3B4465",
"d 	c #394666",
"e 	c #2B2C48",
"f 	c #191523",
"g 	c #333856",
"h 	c #394367",
"i 	c #0A0D1E",
"j 	c #101123",
"k 	c #1E2538",
"l 	c #29304C",
"m 	c #66708B",
"n 	c #3C4767",
"o 	c #5C6681",
"p 	c #272D47",
"q 	c #1E2337",
"r 	c #0A0D20",
"s 	c #141625",
"t 	c #0F1022",
"u 	c #23293F",
"v 	c #262C46",
"w 	c #9BA3B6",
"x 	c #394668",
"y 	c #434C6B",
"z 	c #7D859A",
"A 	c #252B45",
"B 	c #262A43",
"C 	c #252B41",
"D 	c #252B43",
"E 	c #2E3551",
"F 	c #656F8A",
"G 	c #67718A",
"H 	c #6A718B",
"I 	c #67718C",
"J 	c #49526F",
"K 	c #313855",
"L 	c #2C314F",
"M 	c #262C42",
"N 	c #242A42",
"O 	c #0F1221",
"P 	c #242C41",
"Q 	c #262A45",
"R 	c #5D6379",
"S 	c #5D657A",
"T 	c #5C6477",
"U 	c #5E6578",
"V 	c #5D6477",
"W 	c #464D67",
"X 	c #343A5A",
"Y 	c #454C66",
"Z 	c #5D6578",
"` 	c #242A44",
" .	c #262B41",
"..	c #090F1F",
"+.	c #060D1F",
"@.	c #111022",
"#.	c #242B45",
"$.	c #242C43",
"%.	c #252944",
"&.	c #272B44",
"*.	c #252C3F",
"=.	c #222C45",
"-.	c #252942",
";.	c #151424",
">.	c #111020",
",.	c #232A44",
"'.	c #9B723A",
").	c #232B42",
"!.	c #252C46",
"~.	c #222D43",
"{.	c #5D4B3F",
"].	c #323443",
"^.	c #282A43",
"/.	c #C48A38",
"(.	c #242A40",
"_.	c #110F24",
":.	c #FFAC32",
"<.	c #FDAE35",
"[.	c #FDAE37",
"}.	c #5D4D40",
"|.	c #C38B34",
"1.	c #252D44",
"2.	c #936B38",
"3.	c #FAAE34",
"4.	c #131222",
"5.	c #0A1020",
"6.	c #FBAF37",
"7.	c #5C4C3F",
"8.	c #3E3C41",
"9.	c #906A39",
"0.	c #E19C34",
"a.	c #906837",
"b.	c #8D6937",
"c.	c #916938",
"d.	c #8E6837",
"e.	c #C68B31",
"f.	c #FEAD37",
"g.	c #8E6839",
"h.	c #8E6B35",
"i.	c #252A47",
"j.	c #262B48",
"k.	c #0C0D1F",
"l.	c #E43E42",
"m.	c #DE8C36",
"n.	c #FDAF33",
"o.	c #5A4D3D",
"p.	c #5A4C3F",
"q.	c #FFAD37",
"r.	c #8D6C37",
"s.	c #FEAE35",
"t.	c #C48A36",
"u.	c #C38A33",
"v.	c #FBAF35",
"w.	c #181623",
"x.	c #171324",
"y.	c #090C1F",
"z.	c #0C0F22",
"A.	c #E33C44",
"B.	c #DF653C",
"C.	c #D97238",
"D.	c #403B42",
"E.	c #B77E37",
"F.	c #A47638",
"G.	c #FAAF32",
"H.	c #A67636",
"I.	c #C28A35",
"J.	c #A77737",
"K.	c #926A37",
"L.	c #242C3F",
"M.	c #272B46",
"N.	c #171723",
"O.	c #0A101E",
"P.	c #E33E44",
"Q.	c #E63C45",
"R.	c #E53C43",
"S.	c #CC8E39",
"T.	c #FEAF38",
"U.	c #86653A",
"V.	c #A8763B",
"W.	c #956C38",
"X.	c #282945",
"Y.	c #141622",
"Z.	c #181423",
"`.	c #0D1021",
" +	c #E43D45",
".+	c #E43D44",
"++	c #E33C46",
"@+	c #5B4B3E",
"#+	c #FFAF36",
"$+	c #FEAE33",
"%+	c #FCAD36",
"&+	c #FCAE32",
"*+	c #FDAC37",
"=+	c #FFAD33",
"-+	c #FDAD34",
";+	c #232E44",
">+	c #B43745",
",+	c #B63844",
"'+	c #FFAE38",
")+	c #0C0E1D",
"!+	c #B0323D",
"~+	c #D83B42",
"{+	c #402D40",
"]+	c #4D4640",
"^+	c #DF8D37",
"/+	c #DE9232",
"(+	c #DE932E",
"_+	c #DE9234",
":+	c #DE9230",
"<+	c #DF942F",
"[+	c #DC942E",
"}+	c #DC8C35",
"|+	c #D98D35",
"1+	c #262A47",
"2+	c #252A40",
"3+	c #FEAF36",
"4+	c #FDAE38",
"5+	c #C18431",
"6+	c #0C0D21",
"7+	c #B4323C",
"8+	c #E73C42",
"9+	c #E33C43",
"0+	c #F1692D",
"a+	c #F77622",
"b+	c #CF4D33",
"c+	c #E63D42",
"d+	c #E63D44",
"e+	c #E43D47",
"f+	c #FCAD34",
"g+	c #060D20",
"h+	c #0D0E22",
"i+	c #63242D",
"j+	c #E43F46",
"k+	c #D23E3E",
"l+	c #F97624",
"m+	c #D53C41",
"n+	c #E33D47",
"o+	c #E33E42",
"p+	c #B1323D",
"q+	c #7F2934",
"r+	c #96642F",
"s+	c #89622B",
"t+	c #131021",
"u+	c #080D21",
"v+	c #090C1D",
"w+	c #070F1C",
"x+	c #E23D43",
"y+	c #E53E45",
"z+	c #E23D44",
"A+	c #E43E40",
"B+	c #E33E45",
"C+	c #AE303B",
"D+	c #070D1D",
"E+	c #0F111E",
"F+	c #E63C49",
"G+	c #E53B44",
"H+	c #69232E",
"I+	c #321726",
"J+	c #0A0D1C",
"K+	c #080E1E",
"L+	c #161525",
"M+	c #0E1120",
"N+	c #070D1B",
"O+	c #0B0E1F",
"P+	c #762631",
"Q+	c #B22E3B",
"R+	c #B22F37",
"S+	c #D23844",
"T+	c #C6363F",
"U+	c #B32F3C",
"V+	c #401729",
"W+	c #0A0B1F",
"X+	c #0A0B20",
"Y+	c #0B0C1E",
"Z+	c #0B0E21",
"`+	c #1B1424",
" @	c #101221",
".@	c #070E20",
"+@	c #080E1C",
"@@	c #A32634",
"#@	c #A22932",
"$@	c #A32732",
"%@	c #A32731",
"&@	c #A02832",
"*@	c #A52732",
"=@	c #A42631",
"-@	c #A42832",
";@	c #A42833",
">@	c #AE303C",
",@	c #0A0C21",
"'@	c #171520",
")@	c #0F1024",
"!@	c #AF313C",
"~@	c #C3333D",
"{@	c #C1343C",
"]@	c #B02D35",
"^@	c #A42632",
"/@	c #A12732",
"(@	c #A22833",
"_@	c #A12831",
":@	c #B73138",
"<@	c #C4343D",
"[@	c #D73B3F",
"}@	c #B0313C",
"|@	c #E13E43",
"1@	c #E73E45",
"2@	c #E73C44",
"3@	c #090F1D",
"4@	c #E03F47",
"5@	c #E33D41",
"6@	c #E23B43",
"7@	c #E63C47",
"8@	c #070E1E",
"9@	c #131224",
"0@	c #141321",
"a@	c #4F3A27",
"b@	c #FEB034",
"c@	c #FDAC36",
"d@	c #0B0C21",
"e@	c #FFAF34",
"f@	c #141323",
"g@	c #131220",
"h@	c #161527",
"i@	c #FCAF39",
"j@	c #C2842D",
"k@	c #09111E",
"l@	c #A6762C",
"m@	c #0B0C20",
"n@	c #C0872E",
". + @ # $ % & * = - ; ; ; ; ; > , ' ) ! ~ { + ] ",
"^ / ( + _ : < [ } _ _ _ _ _ _ | 1 2 # # # { + ] ",
"3 ~ ! + 4 5 6 7 4 8 _ _ _ _ _ [ 9 0 # { a { + ] ",
"b + 0 | _ _ 6 6 _ _ _ | 9 _ [ 4 c _ d e f # { ] ",
"3 @ g 5 _ [ < [ _ _ < _ _ _ _ [ 6 h _ * a # { i ",
"j k l m < < _ _ [ _ 9 h < _ _ 6 | n o p q r i s ",
"t u v w _ _ _ _ < [ 1 9 _ 9 _ [ x y z A A ] ] # ",
"t B C D E m F m G H I I J 6 J I K L M N D i ] { ",
"O D P Q C R S T U V U U W X Y Z M `  .A A ..+.{ ",
"@.D #.C Q A D B $.B %. .$.&.$.B Q Q *.=.-.r i ;.",
">.,.Q #.&.$.$.'.D ).!.C B M D  .C $.B -.D ] ] { ",
"j B ~.{.].Q ^./.C P D A $.N D B  .(.D D P i ] { ",
"_.:.<.[.}.P A |.1.D -.P 2.3.C ^.P C ).C D r r 4.",
"5.<.[.6.7.8.9.0.a.b.c.d.e.f.g.h.).i.1.-.j.~ { k.",
"^ l.m.n.o.p.q.r.D [.s.[.t.P u.v.=.C B C ` w.x.y.",
"z.A.B.C.8.D.h.E.u.F.n.G.H.I.J.K.L.).M.P C { N.i ",
"O.P.Q.R.1.A P S.T.U.<.T.V.<.W.D C &.-.X.N Y.Z.] ",
"`. +.+++^.@+#+s.$+T.n.%+&+*+=+-+P ;+C >+,+-+v.'+",
")+!+~+.+{+]+m.^+/+(+_+:+<+[+}+|+1+2+D P.l.3+4+5+",
"6+# 7+8+9+.+l..+R.0+a+a+b+c+P. +.+P.d+c+e+f+-+g+",
"h++ i+ +P.j+.+d+ +k+a+l+m+n+l..+d+P.o+p+q+r+s+r ",
"t+u+v+w+ +x+y+z+P.A.z+ +A+.+d+B+o+C+y.r D+r v+Z.",
"E+] u+r B+c+9+P..+9+ + +.+F+ +G+H+I+u+] i J+K+L+",
"M+N+O+r P+Q+R+S+9+B+ +9+x+z+T+U+V+W+i X+D+Y+Z+`+",
" @J+r .@+@@@#@$@%@$@&@*@$@=@-@;@P.>@K+r ] ,@] '@",
")@K+r i !@~@{@]@^@$@/@=@(@_@:@<@A.[@}@K+i i r ! ",
"M+Y+] J+P.|@P.G+.+.+.+1@.+B+2@.+P.P.A.3@i i ] { ",
" @] i J+.+G+9+R.4@l.5@x+6@l.l..+7@.+.+.@8@] ] # ",
"b 9@0@a@[.b@-+c@Y+y.v+] d@K+<.<.[.<.e@0@f@g@0@i ",
"^ ! h@<.s.%+i@-+r K+O+i ] ,@j@$+s.4+s.a { + + r ",
"k@Z.Z.f+%+[.<.l@m@r i D+y.O+n@[.s.s.s.w.{ # + ] ",
"                                                "};
